:SAMPLES-PER-SECOND 30
:FULLY-SPECIFIED
:DEGREES
579
root  -57.1607 38.5918 -1.47558 79.4587 -86.7712 -75.9688
RightUpLeg  -29.2442 -8.53894 2.20241
RightLeg  18.7729 3.0315 0.994976
RightFoot  -3.56448 -0.897217 12.535
RightToes  4.01633e-009 0 -3.6325e-017
Spine  50.7811 -3.58827 7.10721
Spine1  11.0015 1.53802 -3.38873
HEad  -26.8968 -0.543039 -2.38654
LeftShoulder1  1.74424 -3.00749 -20.3865
LeftArm  -7.45697 -39.5408 -44.9107
LeftForeArm  4.75425 -37.3214 -8.25602
LeftHand  -0.0212639 2.5683 0.278192
RightShoulder  0.789304 0.342524 13.633
RightArm  -6.14307 40.8085 45.8854
RightForeArm  -5.93099 39.114 9.4519
RightHand  -0.327368 5.40679 -3.80729
LeftUpLeg  -32.9657 18.9281 -1.3514
LeftLeg  23.8995 -5.88628 -2.50995
LeftFoot  6.29932 -1.34788 8.42355
LeftToes  -1.95724e-009 9.62483e-011 3.51777e-011
580
root  -57.4558 38.3076 -1.83173 39.5035 -86.5573 -34.727
RightUpLeg  -31.6204 -7.00842 1.15401
RightLeg  17.2862 6.23544 2.06413
RightFoot  0.965284 -1.04019 10.2052
RightToes  4.01633e-009 0 -3.6325e-017
Spine  54.2041 -3.32181 6.62437
Spine1  9.85113 0.785732 -1.43545
HEad  -29.5291 -2.2986 0.822696
LeftShoulder1  1.86556 -4.39858 -16.9448
LeftArm  -9.23067 -44.0144 -46.125
LeftForeArm  4.66142 -33.9932 -7.31966
LeftHand  -0.0300367 2.02828 0.637495
RightShoulder  0.777408 0.426584 12.8286
RightArm  -7.07133 44.9399 44.2948
RightForeArm  -9.99457 34.3037 8.22252
RightHand  -0.474373 6.78364 -4.8767
LeftUpLeg  -35.4721 17.4147 -2.80921
LeftLeg  26.4018 -6.33011 -3.07113
LeftFoot  5.33721 -1.28249 8.51022
LeftToes  -1.95724e-009 9.62483e-011 3.51777e-011
581
root  -57.7558 38.0522 -1.94113 21.0573 -82.1419 -17.5227
RightUpLeg  -32.5035 -10.6321 2.40828
RightLeg  22.7146 5.34055 2.23939
RightFoot  3.98803 -0.071384 0.521974
RightToes  4.01633e-009 0 -3.6325e-017
Spine  58.6106 -7.42098 11.0332
Spine1  9.33334 -0.971984 -2.52857
HEad  -33.4943 -2.46229 6.92289
LeftShoulder1  1.94969 -5.88813 -13.803
LeftArm  -11.5386 -49.8458 -44.3681
LeftForeArm  4.01124 -30.5566 -6.45162
LeftHand  -0.00455101 2.56524 -0.375706
RightShoulder  0.87807 0.935192 12.8046
RightArm  -9.37383 49.11 40.6226
RightForeArm  -14.407 29.8376 7.23402
RightHand  -0.552633 8.46521 -4.99422
LeftUpLeg  -35.5101 12.8235 -1.29708
LeftLeg  29.5665 -5.83664 -3.22016
LeftFoot  3.64923 -1.12713 8.37747
LeftToes  -1.95724e-009 9.62483e-011 3.51777e-011
582
root  -58.028 37.7246 -2.02422 19.7859 -78.3798 -17.7794
RightUpLeg  -32.7388 -14.2534 3.25563
RightLeg  27.404 5.29561 2.73715
RightFoot  2.82689 0.0888383 -0.570579
RightToes  4.01633e-009 0 -3.6325e-017
Spine  63.8663 -11.4455 14.5399
Spine1  7.4293 -1.77991 -3.87036
HEad  -39.6293 0.747148 11.7724
LeftShoulder1  1.84507 -6.76801 -10.7102
LeftArm  -14.1195 -54.139 -44.9974
LeftForeArm  4.23036 -28.278 -5.88845
LeftHand  -0.00831827 2.3615 -0.184811
RightShoulder  0.877126 1.22908 11.5297
RightArm  -12.5096 51.9712 37.0477
RightForeArm  -16.9279 26.3213 6.494
RightHand  -0.627731 9.6637 -5.22063
LeftUpLeg  -35.6947 8.25573 0.648057
LeftLeg  33.3048 -4.55274 -2.87663
LeftFoot  1.60403 -0.930778 8.11112
LeftToes  -1.95724e-009 9.62483e-011 3.51777e-011
583
root  -58.2993 37.3123 -2.37211 17.7662 -77.4583 -15.0252
RightUpLeg  -35.8516 -15.6324 3.86019
RightLeg  32.282 5.17029 3.2644
RightFoot  1.22238 0.272678 -2.40115
RightToes  4.01633e-009 0 -3.6325e-017
Spine  68.251 -11.3659 14.2577
Spine1  4.23399 -1.65783 -2.09026
HEad  -45.501 11.8829 16.4433
LeftShoulder1  2.08869 -8.25752 -10.4843
LeftArm  -17.2058 -57.9292 -40.62
LeftForeArm  2.50341 -25.8403 -5.41208
LeftHand  -0.0178828 2.01872 0.25925
RightShoulder  0.957932 2.29007 9.13057
RightArm  -16.2828 53.9261 33.58
RightForeArm  -17.8047 23.1644 5.74333
RightHand  -0.571199 8.53038 -5.09113
LeftUpLeg  -38.1588 6.82119 1.0197
LeftLeg  36.8855 -4.16226 -2.98286
LeftFoot  -0.00389027 -0.770414 7.73244
LeftToes  -1.95724e-009 9.62483e-011 3.51777e-011
584
root  -58.5551 36.965 -2.69583 16.3984 -76.7314 -13.0591
RightUpLeg  -38.3369 -17.0312 4.60845
RightLeg  36.2326 5.22916 3.82791
RightFoot  -0.587175 0.334665 -3.5878
RightToes  4.01633e-009 0 -3.6325e-017
Spine  72.3637 -10.413 13.9029
Spine1  1.47748 -1.23394 1.01186
HEad  -47.0096 31.576 22.5209
LeftShoulder1  2.18306 -9.59698 -9.33393
LeftArm  -22.0138 -60.8222 -37.7791
LeftForeArm  2.32398 -24.2126 -5.05555
LeftHand  -0.0296595 2.45653 0.645609
RightShoulder  0.940527 2.53692 8.1286
RightArm  -19.327 56.5688 28.2055
RightForeArm  -21.2807 20.1341 4.70662
RightHand  -0.807207 10.4048 -6.32397
LeftUpLeg  -40.0326 5.02197 1.71677
LeftLeg  39.6507 -3.39662 -2.64754
LeftFoot  -1.67558 -0.549392 6.61772
LeftToes  -1.95724e-009 9.62483e-011 3.51777e-011
585
root  -58.8758 36.7305 -2.93399 16.6937 -76.4934 -12.7074
RightUpLeg  -40.0838 -17.886 5.4718
RightLeg  38.8363 5.34402 4.31943
RightFoot  -2.04154 0.326154 -4.16484
RightToes  4.01633e-009 0 -3.6325e-017
Spine  75.316 -10.6169 13.8865
Spine1  1.23178 -0.807553 0.872404
HEad  -46.5329 42.8988 26.4543
LeftShoulder1  1.99074 -11.034 -5.91651
LeftArm  -31.617 -63.7063 -30.6921
LeftForeArm  2.33929 -22.3942 -4.5635
LeftHand  -0.0156716 2.56779 0.0749211
RightShoulder  1.01548 3.62003 6.59696
RightArm  -25.799 59.1845 20.9168
RightForeArm  -23.4514 16.8665 3.06874
RightHand  -0.631064 10.1263 -5.11424
LeftUpLeg  -41.4292 3.94627 2.51591
LeftLeg  41.7006 -2.78652 -2.27517
LeftFoot  -3.15371 -0.40938 5.98315
LeftToes  -1.95724e-009 9.62483e-011 3.51777e-011
586
root  -59.1554 36.5963 -3.0211 16.8658 -75.1262 -13.3445
RightUpLeg  -40.1651 -20.3453 6.31893
RightLeg  40.713 6.02343 5.22984
RightFoot  -3.31932 0.282106 -4.34477
RightToes  4.01633e-009 0 -3.6325e-017
Spine  79.7696 -12.3298 14.6616
Spine1  -1.53391 -0.874123 1.06377
HEad  -47.7293 42.32 25.2566
LeftShoulder1  1.85604 -11.5156 -4.43652
LeftArm  -36.5637 -65.6716 -25.057
LeftForeArm  1.35858 -20.7398 -3.87537
LeftHand  -0.0202809 2.65006 0.246938
RightShoulder  0.95055 3.95753 4.89627
RightArm  -29.3999 60.8478 16.415
RightForeArm  -24.9916 14.471 1.94734
RightHand  -0.655403 10.4513 -5.20339
LeftUpLeg  -41.6248 1.52882 3.69333
LeftLeg  43.4714 -1.83895 -1.47714
LeftFoot  -4.20725 -0.296286 5.15138
LeftToes  -1.95724e-009 9.62483e-011 3.51777e-011
587
root  -59.395 36.3435 -3.16512 17.0021 -74.108 -12.8929
RightUpLeg  -41.9299 -21.5613 7.1191
RightLeg  43.2795 5.65205 5.36202
RightFoot  -4.83897 0.243424 -4.85527
RightToes  4.01633e-009 0 -3.6325e-017
Spine  82.3171 -12.9927 15.2202
Spine1  -3.35258 -0.873319 2.06144
HEad  -49.8886 44.9093 25.9158
LeftShoulder1  1.62329 -12.4016 -2.0241
LeftArm  -43.0472 -66.7058 -18.8414
LeftForeArm  0.708652 -19.3394 -2.92929
LeftHand  -0.0202561 3.4764 0.135073
RightShoulder  0.960009 4.6733 3.76867
RightArm  -33.7778 62.3558 8.52156
RightForeArm  -28.1081 11.4612 1.32018
RightHand  -0.737325 10.9046 -5.6028
LeftUpLeg  -43.1542 -0.339282 4.51062
LeftLeg  45.3895 -1.24736 -0.953469
LeftFoot  -5.24451 -0.198152 4.32014
LeftToes  -1.95724e-009 9.62483e-011 3.51777e-011
588
root  -59.6262 36.0993 -3.32388 15.8762 -73.9253 -10.6418
RightUpLeg  -44.1925 -21.6497 7.27612
RightLeg  45.6843 5.27275 5.42645
RightFoot  -5.82223 0.225682 -5.49032
RightToes  4.01633e-009 0 -3.6325e-017
Spine  84.6102 -13.4935 14.5576
Spine1  -5.27895 -1.31637 1.21339
HEad  -40.8565 24.4456 11.1313
LeftShoulder1  1.40115 -13.7657 0.40123
LeftArm  -49.5635 -65.8345 -10.297
LeftForeArm  -1.6792 -18.0297 -1.96361
LeftHand  -0.0317292 3.98954 0.736743
RightShoulder  0.91916 5.35768 2.20091
RightArm  -38.0368 63.6291 4.30311
RightForeArm  -29.4193 9.10527 0.658948
RightHand  -1.15162 13.5199 -7.49329
LeftUpLeg  -44.9186 -1.02904 4.45328
LeftLeg  46.9658 -0.915986 -0.642388
LeftFoot  -6.09253 -0.144398 3.95286
LeftToes  -1.95724e-009 9.62483e-011 3.51777e-011
589
root  -59.8545 35.8861 -3.37839 15.7911 -73.0355 -10.0537
RightUpLeg  -45.3862 -22.3132 7.61138
RightLeg  47.425 4.77401 5.20015
RightFoot  -6.93041 0.181575 -5.93044
RightToes  4.01633e-009 0 -3.6325e-017
Spine  86.7873 -14.7332 14.9563
Spine1  -7.69312 -1.56443 0.611472
HEad  -3.70661 -57.4935 -46.817
LeftShoulder1  1.31549 -14.4935 1.29961
LeftArm  -53.2423 -66.3999 -4.00631
LeftForeArm  -3.9371 -16.3776 -0.810942
LeftHand  -0.0491508 3.11047 1.75822
RightShoulder  0.83948 5.76146 0.708527
RightArm  -41.2677 63.5515 1.15845
RightForeArm  -29.5826 7.85126 0.0889751
RightHand  -1.2061 13.5882 -7.78213
LeftUpLeg  -46.0976 -1.51062 4.60496
LeftLeg  48.5551 -1.10397 -0.917093
LeftFoot  -7.11354 -0.0994124 3.85803
LeftToes  -1.95724e-009 9.62483e-011 3.51777e-011
590
root  -60.0618 35.6803 -3.40203 15.7879 -72.2241 -10.0791
RightUpLeg  -45.9091 -22.8227 7.76703
RightLeg  49.1284 4.30791 4.95186
RightFoot  -8.2331 0.106909 -5.88993
RightToes  4.01633e-009 0 -3.6325e-017
Spine  88.8787 -14.9076 15.7568
Spine1  -9.72659 -0.663788 1.92053
HEad  -5.22735 -51.9855 -44.057
LeftShoulder1  0.85053 -14.6312 4.29998
LeftArm  -56.5591 -67.7191 -6.23124
LeftForeArm  -2.53189 -15.8867 0.846277
LeftHand  -0.0447953 3.30949 1.44608
RightShoulder  0.841967 6.18291 0.278566
RightArm  -44.2267 61.939 -5.6794
RightForeArm  -31.5813 6.91349 0.281889
RightHand  -1.11149 13.2535 -7.31241
LeftUpLeg  -46.7672 -2.02561 4.89705
LeftLeg  50.2223 -1.2875 -1.22394
LeftFoot  -8.14253 -0.0582584 3.83602
LeftToes  -1.95724e-009 9.62483e-011 3.51777e-011
591
root  -60.2457 35.4682 -3.44228 14.6447 -71.8828 -8.992
RightUpLeg  -46.4489 -22.7881 7.41608
RightLeg  50.9138 3.72469 4.52428
RightFoot  -9.6559 0.0125481 -5.36634
RightToes  4.01633e-009 0 -3.6325e-017
Spine  90.8126 -15.7574 15.4894
Spine1  -11.051 -1.06681 1.23331
HEad  -6.90528 -51.5942 -42.1018
LeftShoulder1  0.516391 -15.1722 6.48375
LeftArm  -59.8414 -66.8502 -2.49837
LeftForeArm  -3.56106 -15.0721 1.93754
LeftHand  -0.0277278 4.15303 0.603957
RightShoulder  0.770752 6.17787 -0.508122
RightArm  -47.4515 62.1046 -8.62925
RightForeArm  -31.8288 5.96833 -0.200807
RightHand  -0.827797 12.4318 -5.81965
LeftUpLeg  -47.238 -2.1571 4.73105
LeftLeg  51.6744 -1.39649 -1.44415
LeftFoot  -9.00377 -0.0200935 3.64145
LeftToes  -1.95724e-009 9.62483e-011 3.51777e-011
